<?xml version="1.0" encoding="UTF-8" standalone="no"?>
<!DOCTYPE svg PUBLIC "-//W3C//DTD SVG 1.1//EN"
 "http://www.w3.org/Graphics/SVG/1.1/DTD/svg11.dtd">
<!-- Generated by graphviz version 2.43.0 (0)
 -->
<!-- Title: deps Pages: 1 -->
<svg width="412pt" height="188pt"
 viewBox="0.00 0.00 411.64 188.00" xmlns="http://www.w3.org/2000/svg" xmlns:xlink="http://www.w3.org/1999/xlink">
<g id="graph0" class="graph" transform="scale(1 1) rotate(0) translate(4 184)">
<title>deps</title>
<polygon fill="white" stroke="transparent" points="-4,4 -4,-184 407.64,-184 407.64,4 -4,4"/>
<!-- molpy -->
<g id="node1" class="node">
<title>molpy</title>
<g id="a_node1"><a xlink:href="https://github.com/MolCrafts/molpy" xlink:title="molpy">
<ellipse fill="lightsalmon" stroke="lightsalmon" cx="217" cy="-90" rx="34.39" ry="18"/>
<text text-anchor="middle" x="217" y="-86.3" font-family="Helvetica,Arial,sans-serif" font-size="14.00">molpy</text>
</a>
</g>
</g>
<!-- molvis -->
<g id="node3" class="node">
<title>molvis</title>
<g id="a_node3"><a xlink:href="https://github.com/MolCrafts/molvis" xlink:title="molvis">
<ellipse fill="lightsalmon" stroke="lightsalmon" cx="118" cy="-18" rx="36.29" ry="18"/>
<text text-anchor="middle" x="118" y="-14.3" font-family="Helvetica,Arial,sans-serif" font-size="14.00">molvis</text>
</a>
</g>
</g>
<!-- molpy&#45;&gt;molvis -->
<g id="edge2" class="edge">
<title>molpy&#45;&gt;molvis</title>
<path fill="none" stroke="black" d="M197.44,-75.17C182.98,-64.95 163.07,-50.87 146.8,-39.37"/>
<polygon fill="black" stroke="black" points="148.38,-36.2 138.19,-33.28 144.34,-41.91 148.38,-36.2"/>
</g>
<!-- molbase -->
<g id="node8" class="node">
<title>molbase</title>
<ellipse fill="#b2dfee" stroke="#b2dfee" cx="217" cy="-18" rx="44.39" ry="18"/>
<text text-anchor="middle" x="217" y="-14.3" font-family="Helvetica,Arial,sans-serif" font-size="14.00">molbase</text>
</g>
<!-- molpy&#45;&gt;molbase -->
<g id="edge7" class="edge">
<title>molpy&#45;&gt;molbase</title>
<path fill="none" stroke="grey" stroke-dasharray="5,2" d="M217,-71.7C217,-63.98 217,-54.71 217,-46.11"/>
<polygon fill="grey" stroke="grey" points="220.5,-46.1 217,-36.1 213.5,-46.1 220.5,-46.1"/>
</g>
<!-- molcpp -->
<g id="node9" class="node">
<title>molcpp</title>
<ellipse fill="#b2dfee" stroke="#b2dfee" cx="321" cy="-18" rx="42.49" ry="18"/>
<text text-anchor="middle" x="321" y="-14.3" font-family="Helvetica,Arial,sans-serif" font-size="14.00">molcpp</text>
</g>
<!-- molpy&#45;&gt;molcpp -->
<g id="edge8" class="edge">
<title>molpy&#45;&gt;molcpp</title>
<path fill="none" stroke="grey" stroke-dasharray="5,2" d="M237.54,-75.17C252.77,-64.92 273.75,-50.8 290.87,-39.28"/>
<polygon fill="grey" stroke="grey" points="293.08,-42.01 299.42,-33.52 289.17,-36.2 293.08,-42.01"/>
</g>
<!-- molpot -->
<g id="node2" class="node">
<title>molpot</title>
<g id="a_node2"><a xlink:href="https://github.com/MolCrafts/molpot" xlink:title="molpot">
<ellipse fill="lightsalmon" stroke="lightsalmon" cx="364" cy="-162" rx="37.89" ry="18"/>
<text text-anchor="middle" x="364" y="-158.3" font-family="Helvetica,Arial,sans-serif" font-size="14.00">molpot</text>
</a>
</g>
</g>
<!-- molpot&#45;&gt;molpy -->
<g id="edge6" class="edge">
<title>molpot&#45;&gt;molpy</title>
<path fill="none" stroke="black" d="M338.05,-148.65C313.83,-137.11 277.52,-119.82 250.99,-107.19"/>
<polygon fill="black" stroke="black" points="252.23,-103.9 241.7,-102.76 249.22,-110.22 252.23,-103.9"/>
</g>
<!-- molexp -->
<g id="node4" class="node">
<title>molexp</title>
<g id="a_node4"><a xlink:href="https://github.com/MolCrafts/molexp" xlink:title="molexp">
<ellipse fill="lightsalmon" stroke="lightsalmon" cx="364" cy="-90" rx="39.79" ry="18"/>
<text text-anchor="middle" x="364" y="-86.3" font-family="Helvetica,Arial,sans-serif" font-size="14.00">molexp</text>
</a>
</g>
</g>
<!-- molpot&#45;&gt;molexp -->
<g id="edge1" class="edge">
<title>molpot&#45;&gt;molexp</title>
<path fill="none" stroke="black" d="M364,-143.7C364,-135.98 364,-126.71 364,-118.11"/>
<polygon fill="black" stroke="black" points="367.5,-118.1 364,-108.1 360.5,-118.1 367.5,-118.1"/>
</g>
<!-- molbuilder -->
<g id="node5" class="node">
<title>molbuilder</title>
<ellipse fill="#b2dfee" stroke="#b2dfee" cx="52" cy="-162" rx="51.99" ry="18"/>
<text text-anchor="middle" x="52" y="-158.3" font-family="Helvetica,Arial,sans-serif" font-size="14.00">molbuilder</text>
</g>
<!-- molbuilder&#45;&gt;molpy -->
<g id="edge3" class="edge">
<title>molbuilder&#45;&gt;molpy</title>
<path fill="none" stroke="black" d="M83.81,-147.5C111.83,-135.62 152.58,-118.33 181.61,-106.01"/>
<polygon fill="black" stroke="black" points="183.14,-109.17 190.98,-102.04 180.4,-102.72 183.14,-109.17"/>
</g>
<!-- molpack -->
<g id="node6" class="node">
<title>molpack</title>
<ellipse fill="#b2dfee" stroke="#b2dfee" cx="166" cy="-162" rx="44.39" ry="18"/>
<text text-anchor="middle" x="166" y="-158.3" font-family="Helvetica,Arial,sans-serif" font-size="14.00">molpack</text>
</g>
<!-- molpack&#45;&gt;molpy -->
<g id="edge4" class="edge">
<title>molpack&#45;&gt;molpy</title>
<path fill="none" stroke="black" d="M178.08,-144.41C184.46,-135.66 192.41,-124.75 199.45,-115.08"/>
<polygon fill="black" stroke="black" points="202.29,-117.13 205.35,-106.99 196.63,-113.01 202.29,-117.13"/>
</g>
<!-- molana -->
<g id="node7" class="node">
<title>molana</title>
<ellipse fill="#b2dfee" stroke="#b2dfee" cx="268" cy="-162" rx="40.09" ry="18"/>
<text text-anchor="middle" x="268" y="-158.3" font-family="Helvetica,Arial,sans-serif" font-size="14.00">molana</text>
</g>
<!-- molana&#45;&gt;molpy -->
<g id="edge5" class="edge">
<title>molana&#45;&gt;molpy</title>
<path fill="none" stroke="black" d="M256.17,-144.76C249.79,-136.02 241.8,-125.05 234.71,-115.31"/>
<polygon fill="black" stroke="black" points="237.48,-113.17 228.76,-107.15 231.82,-117.29 237.48,-113.17"/>
</g>
</g>
</svg>
